<svg width="9" height="9" viewBox="0 0 9 9" fill="none" xmlns="http://www.w3.org/2000/svg">
<path fill-rule="evenodd" clip-rule="evenodd" d="M8.57103 4.77269C8.57103 5.02917 8.54491 5.2853 8.49363 5.53497C8.44361 5.7787 8.36954 6.018 8.2725 6.24675C8.17769 6.47145 8.06009 6.68799 7.92267 6.88992C7.78731 7.09059 7.63136 7.27884 7.46006 7.45045C7.28838 7.62131 7.09948 7.77682 6.89892 7.91277C6.69632 8.04923 6.47947 8.16666 6.25463 8.26191C6.02555 8.35844 5.78571 8.43241 5.54218 8.48233C5.29218 8.53375 5.03512 8.56001 4.77826 8.56001C4.52121 8.56001 4.26416 8.53375 4.01452 8.48233C3.77063 8.43241 3.5308 8.35844 3.30189 8.26191C3.07707 8.16666 2.86001 8.04923 2.65742 7.91277C2.45685 7.77684 2.26795 7.62131 2.09665 7.45045C1.92516 7.27884 1.76922 7.09059 1.63366 6.88992C1.49698 6.68799 1.37919 6.47144 1.28401 6.24675C1.18695 6.018 1.1127 5.77869 1.06251 5.53497C1.01177 5.2853 0.98584 5.02917 0.98584 4.77269C0.98584 4.51601 1.01176 4.25933 1.06253 4.01021C1.11272 3.76647 1.18697 3.52681 1.28402 3.29843C1.37921 3.07357 1.497 2.85684 1.63367 2.65489C1.76923 2.45406 1.92518 2.26616 2.09666 2.09436C2.26797 1.92348 2.45686 1.76834 2.65743 1.63261C2.86003 1.49557 3.07709 1.37815 3.30191 1.28272C3.53081 1.18598 3.77063 1.11184 4.01454 1.06228C4.26418 1.01125 4.52123 0.985352 4.77828 0.985352C5.03513 0.985352 5.29218 1.01125 5.54219 1.06228C5.78572 1.11185 6.02555 1.186 6.25465 1.28272C6.47947 1.37814 6.69633 1.49557 6.89893 1.63261C7.0995 1.76834 7.28841 1.92348 7.46007 2.09436C7.63138 2.26616 7.78732 2.45406 7.92269 2.65489C8.06009 2.85684 8.17769 3.07358 8.2725 3.29843C8.36954 3.52681 8.44361 3.76647 8.49363 4.01021C8.54491 4.25933 8.57103 4.51601 8.57103 4.77269ZM3.39632 1.8473C2.49312 2.2732 1.81901 3.10426 1.60881 4.10583C1.6942 4.10657 3.0439 4.12359 4.59897 3.711C4.0384 2.71645 3.43948 1.90483 3.39632 1.8473ZM4.86732 4.20903C3.19964 4.70758 1.59937 4.67171 1.54196 4.6695C1.54103 4.70426 1.53937 4.73791 1.53937 4.77268C1.53937 5.60355 1.85327 6.36101 2.36922 6.93375C2.36811 6.93208 3.25447 5.36186 5.00233 4.79747C5.04455 4.78341 5.08752 4.77083 5.13011 4.75863C5.04882 4.57482 4.96009 4.39063 4.86732 4.20903ZM6.91725 2.34532C6.34703 1.84323 5.5983 1.53867 4.77825 1.53867C4.51509 1.53867 4.2597 1.57048 4.01506 1.62928C4.06357 1.69439 4.67195 2.50029 5.22586 3.5159C6.44797 3.0584 6.90928 2.35714 6.91725 2.34532ZM5.35089 5.29455C5.34367 5.29694 5.33646 5.299 5.32941 5.30158C3.41841 5.96682 2.79435 7.30746 2.7876 7.3221C3.33746 7.74909 4.02712 8.0067 4.77827 8.0067C5.2268 8.0067 5.65404 7.91551 6.04276 7.75039C5.9948 7.46782 5.80665 6.47735 5.35089 5.29455ZM6.58816 7.45488C7.31541 6.96482 7.83191 6.18665 7.976 5.28529C7.90933 5.26384 7.00317 4.97738 5.95774 5.14475C6.38258 6.31054 6.55519 7.25997 6.58816 7.45488ZM5.47516 3.99783C5.55033 4.15207 5.62313 4.30904 5.69035 4.46681C5.71425 4.5234 5.73758 4.57888 5.76035 4.63435C6.873 4.49454 7.96917 4.72977 8.01603 4.73937C8.00863 3.97268 7.73397 3.26902 7.27952 2.71813C7.2734 2.7268 6.75393 3.47632 5.47516 3.99783Z" fill="white"/>
</svg>
