<svg width="9" height="9" viewBox="0 0 9 9" fill="none" xmlns="http://www.w3.org/2000/svg">
<path fill-rule="evenodd" clip-rule="evenodd" d="M4.4448 0.985352C3.41479 0.985352 3.28552 0.989855 2.88098 1.00827C2.47722 1.02675 2.20162 1.09068 1.96047 1.18446C1.71103 1.28133 1.49943 1.41092 1.28862 1.6218C1.07766 1.83261 0.948076 2.04421 0.85089 2.29357C0.756864 2.5348 0.692863 2.81048 0.67469 3.21408C0.656596 3.61862 0.651855 3.74797 0.651855 4.77798C0.651855 5.808 0.656438 5.93687 0.674769 6.34142C0.693337 6.74517 0.757259 7.02077 0.850969 7.26192C0.947918 7.51137 1.0775 7.72296 1.28839 7.93377C1.49911 8.14473 1.71071 8.27463 1.96 8.3715C2.2013 8.46529 2.47698 8.52921 2.88066 8.5477C3.28521 8.56611 3.41439 8.57062 4.44433 8.57062C5.47442 8.57062 5.6033 8.56611 6.00784 8.5477C6.4116 8.52921 6.68751 8.46529 6.92882 8.3715C7.17819 8.27463 7.38947 8.14473 7.60019 7.93377C7.81116 7.72296 7.94074 7.51136 8.03793 7.262C8.13116 7.02077 8.19516 6.7451 8.21413 6.3415C8.2323 5.93695 8.23704 5.808 8.23704 4.77798C8.23704 3.74797 8.2323 3.6187 8.21413 3.21415C8.19516 2.8104 8.13116 2.5348 8.03793 2.29365C7.94074 2.04421 7.81116 1.83261 7.60019 1.6218C7.38923 1.41084 7.17826 1.28126 6.92858 1.18446C6.6868 1.09068 6.41105 1.02675 6.00729 1.00827C5.60274 0.989855 5.47395 0.985352 4.44362 0.985352H4.4448ZM4.10456 1.6688C4.20554 1.66865 4.31821 1.6688 4.44479 1.6688C5.45742 1.6688 5.57744 1.67244 5.97733 1.69061C6.34711 1.70752 6.5478 1.76931 6.68149 1.82122C6.85848 1.88996 6.98467 1.97214 7.11733 2.10488C7.25007 2.23762 7.33224 2.36404 7.40114 2.54103C7.45306 2.67456 7.51492 2.87526 7.53175 3.24504C7.54993 3.64485 7.55388 3.76495 7.55388 4.7771C7.55388 5.78926 7.54993 5.90936 7.53175 6.30917C7.51484 6.67895 7.45306 6.87964 7.40114 7.01318C7.3324 7.19017 7.25007 7.31619 7.11733 7.44886C6.98459 7.5816 6.85856 7.66377 6.68149 7.73251C6.54796 7.78466 6.34711 7.84629 5.97733 7.8632C5.57752 7.88137 5.45742 7.88532 4.44479 7.88532C3.43208 7.88532 3.31205 7.88137 2.91225 7.8632C2.54247 7.84613 2.34177 7.78435 2.208 7.73243C2.03101 7.66369 1.90459 7.58152 1.77185 7.44878C1.63911 7.31603 1.55694 7.18993 1.48804 7.01286C1.43612 6.87933 1.37426 6.67864 1.35743 6.30885C1.33925 5.90905 1.33562 5.78895 1.33562 4.77616C1.33562 3.76336 1.33925 3.6439 1.35743 3.24409C1.37434 2.87431 1.43612 2.67362 1.48804 2.53993C1.55678 2.36294 1.63911 2.23651 1.77185 2.10377C1.90459 1.97103 2.03101 1.88886 2.208 1.81996C2.34169 1.76781 2.54247 1.70618 2.91225 1.68919C3.26212 1.67339 3.3977 1.66865 4.10456 1.66786V1.6688ZM6.46927 2.29854C6.218 2.29854 6.01415 2.50216 6.01415 2.7535C6.01415 3.00476 6.218 3.20862 6.46927 3.20862C6.72053 3.20862 6.92438 3.00476 6.92438 2.7535C6.92438 2.50224 6.72053 2.29854 6.46927 2.29854ZM4.44481 2.8303C3.3692 2.8303 2.49714 3.70237 2.49714 4.77797C2.49714 5.85358 3.3692 6.72525 4.44481 6.72525C5.52042 6.72525 6.39217 5.85358 6.39217 4.77797C6.39217 3.70237 5.52042 2.8303 4.44481 2.8303ZM4.4448 3.51376C5.14296 3.51376 5.70901 4.07973 5.70901 4.77797C5.70901 5.47613 5.14296 6.04218 4.4448 6.04218C3.74656 6.04218 3.18058 5.47613 3.18058 4.77797C3.18058 4.07973 3.74656 3.51376 4.4448 3.51376Z" fill="white"/>
</svg>
