<svg width="8" height="7" viewBox="0 0 8 7" fill="none" xmlns="http://www.w3.org/2000/svg">
<path fill-rule="evenodd" clip-rule="evenodd" d="M3.89824 2.44681L3.91316 2.69287L3.66446 2.66274C2.75918 2.54724 1.9683 2.15555 1.2968 1.49771L0.968512 1.17131L0.883953 1.41235C0.704886 1.94966 0.81929 2.51711 1.19235 2.89875C1.39131 3.10966 1.34654 3.13979 1.00333 3.01425C0.883953 2.97408 0.779497 2.94395 0.769549 2.95901C0.734731 2.99416 0.854109 3.45113 0.948616 3.63191C1.07794 3.883 1.34157 4.12906 1.63006 4.27468L1.87379 4.39018L1.5853 4.3952C1.30675 4.3952 1.2968 4.40022 1.32665 4.50568C1.42613 4.83209 1.81908 5.17858 2.2568 5.32923L2.56519 5.43468L2.29659 5.59538C1.89866 5.82637 1.4311 5.95693 0.963538 5.96698C0.739705 5.972 0.555664 5.99209 0.555664 6.00715C0.555664 6.05737 1.1625 6.33858 1.51566 6.44905C2.57514 6.77546 3.83358 6.63486 4.77865 6.07745C5.45015 5.68074 6.12165 4.89235 6.43502 4.12906C6.60414 3.7223 6.77326 2.9791 6.77326 2.62256C6.77326 2.39157 6.78818 2.36144 7.06673 2.08525C7.23087 1.92455 7.38507 1.7488 7.41491 1.69858C7.46465 1.60317 7.45968 1.60317 7.206 1.68854C6.78321 1.83919 6.72352 1.8191 6.93243 1.59313C7.08662 1.43243 7.27067 1.14118 7.27067 1.05581C7.27067 1.04075 7.19605 1.06585 7.1115 1.11105C7.02196 1.16126 6.823 1.23659 6.67378 1.28178L6.40518 1.36715L6.16145 1.20144C6.02715 1.11105 5.83813 1.01062 5.73865 0.980486C5.48497 0.910183 5.09699 0.920226 4.86819 1.00057C4.24643 1.22655 3.85348 1.80906 3.89824 2.44681Z" fill="white"/>
</svg>
